<svg xmlns="http://www.w3.org/2000/svg" version="1.1" xmlns:xlink="http://www.w3.org/1999/xlink" xmlns:svgjs="http://svgjs.dev/svgjs" width="1500" height="556" viewBox="0 0 1500 556"><g transform="matrix(1,0,0,1,-0.6862529210061439,0.6384538162258764)"><svg viewBox="0 0 396 147" data-background-color="#ffffff" preserveAspectRatio="xMidYMid meet" height="556" width="1500" xmlns="http://www.w3.org/2000/svg" xmlns:xlink="http://www.w3.org/1999/xlink"><g id="tight-bounds" transform="matrix(1,0,0,1,0.2410117353043404,0.43764088579314375)"><svg viewBox="0 0 395.5199999999999 146.13927345576587" height="146.13927345576587" width="395.5199999999999"><g><svg viewBox="0 0 664.8531059606473 245.65420170888535" height="146.13927345576587" width="395.5199999999999"><g transform="matrix(1,0,0,1,267.35550596064746,52.36487363000235)"><svg viewBox="0 0 397.4975999999999 140.92445444888065" height="140.92445444888065" width="397.4975999999999"><g id="textblocktransform"><svg viewBox="0 0 397.4975999999999 140.92445444888065" height="140.92445444888065" width="397.4975999999999" id="textblock"><g><rect width="397.4975999999999" height="8.290159859367336" x="0" y="101.69387238659385" fill="#6d285f" opacity="1" stroke-width="0" stroke="transparent" fill-opacity="1" class="rect-yte-0" data-fill-palette-color="primary" rx="1%" id="yte-0" data-palette-color="#6d285f"></rect></g><g transform="matrix(1,0,0,1,0.9887999999999693,0)"><svg viewBox="0 0 395.52 91.92797726430248" height="91.92797726430248" width="395.52"><g transform="matrix(1,0,0,1,0,0)"><svg width="395.52" viewBox="4.63 -37.27 202.3 47.02" height="91.92797726430248" data-palette-color="#6d285f"><path d="M9.08 0L4.63 0Q4.63-2.98 4.63-5.73 4.63-8.47 4.63-11.78L4.63-11.78 4.63-23.73Q4.63-27.1 4.63-29.89 4.63-32.68 4.63-35.65L4.63-35.65 26.35-35.65 26.35-31.75Q23.85-31.75 20.99-31.75 18.13-31.75 14.25-31.75L14.25-31.75 7.15-31.75 9.08-35Q9.08-32 9.08-29.21 9.08-26.43 9.08-23.08L9.08-23.08 9.08-11.78Q9.08-8.47 9.08-5.73 9.08-2.98 9.08 0L9.08 0ZM14.53-15.95L8-15.95 8-19.73 14.58-19.73Q18.03-19.73 20.53-19.73 23.03-19.73 25.35-19.73L25.35-19.73 25.35-15.95Q22.88-15.95 20.39-15.95 17.9-15.95 14.53-15.95L14.53-15.95ZM37.17 0L33.02 0Q33.02-2.78 33.02-5.33 33.02-7.88 33.02-10.95L33.02-10.95 33.02-13.45Q33.02-15.68 33.02-17.56 33.02-19.45 33.02-21.21 33.02-22.98 33.02-24.8L33.02-24.8 37.17-24.95Q37.17-23.1 37.17-21.31 37.17-19.53 37.17-17.61 37.17-15.7 37.17-13.45L37.17-13.45 37.17-10.95Q37.17-7.88 37.17-5.33 37.17-2.78 37.17 0L37.17 0ZM35.02-30.53L35.02-30.53Q33.67-30.53 32.82-31.28 31.97-32.02 31.97-33.58L31.97-33.58Q31.97-35.1 32.82-35.86 33.67-36.63 35.07-36.63L35.07-36.63Q36.45-36.63 37.27-35.84 38.1-35.05 38.1-33.58L38.1-33.58Q38.1-32.02 37.27-31.28 36.45-30.53 35.02-30.53ZM49.95 0L45.82 0Q45.82-2.78 45.82-5.33 45.82-7.88 45.82-10.95L45.82-10.95 45.82-13.45Q45.82-16.2 45.82-19.07 45.82-21.95 45.82-24.8L45.82-24.8 49.42-25.05 49.55-20.45 50-20.45Q50.8-21.58 52.05-22.73 53.3-23.88 55-24.64 56.7-25.4 58.9-25.4L58.9-25.4Q62.85-25.4 64.67-23.13 66.5-20.85 66.5-16.53L66.5-16.53Q66.5-14.9 66.5-13.65 66.5-12.4 66.5-10.95L66.5-10.95Q66.5-8 66.5-5.39 66.5-2.78 66.5 0L66.5 0 62.37 0Q62.37-2.78 62.37-5.36 62.37-7.95 62.37-10.78L62.37-10.78 62.37-15.48Q62.37-18.45 61.31-19.98 60.25-21.5 57.47-21.5L57.47-21.5Q55.8-21.5 54.42-20.83 53.05-20.15 51.93-19.01 50.82-17.88 49.95-16.5L49.95-16.5 49.95-10.78Q49.95-7.85 49.95-5.31 49.95-2.78 49.95 0L49.95 0ZM80.27 0.5L80.27 0.5Q78.04 0.5 76.37-0.36 74.69-1.23 73.76-2.83 72.82-4.42 72.82-6.68L72.82-6.68Q72.82-8.7 73.54-10.09 74.27-11.48 75.44-12.35 76.62-13.23 78.04-13.71 79.47-14.2 80.89-14.45L80.89-14.45 88.67-15.8Q88.77-18.32 88.01-19.61 87.24-20.9 85.87-21.35 84.49-21.8 82.82-21.8L82.82-21.8Q81.97-21.8 80.99-21.68 80.02-21.55 78.93-21.29 77.84-21.03 76.64-20.63 75.44-20.23 74.12-19.65L74.12-19.65 73.89-23.43Q74.79-23.8 75.93-24.15 77.07-24.5 78.36-24.79 79.64-25.08 80.99-25.23 82.34-25.38 83.72-25.38L83.72-25.38Q86.49-25.38 88.51-24.5 90.52-23.63 91.59-21.75 92.67-19.88 92.67-16.85L92.67-16.85Q92.67-15.7 92.67-13.93 92.67-12.15 92.67-10.55L92.67-10.55 92.67-7.33Q92.67-5.63 92.67-3.86 92.67-2.1 92.67 0L92.67 0 88.92 0 88.69-3.53 88.29-3.53Q87.52-2.53 86.34-1.6 85.17-0.68 83.63-0.09 82.09 0.5 80.27 0.5ZM81.47-2.93L81.47-2.93Q82.79-2.93 84.12-3.48 85.44-4.03 86.61-5.11 87.77-6.2 88.57-7.85L88.57-7.85 88.59-13.2Q88.19-12.98 87.53-12.75 86.87-12.53 85.56-12.24 84.24-11.95 81.92-11.53L81.92-11.53Q80.49-11.28 79.39-10.71 78.29-10.15 77.66-9.19 77.02-8.22 77.02-6.85L77.02-6.85Q77.02-4.7 78.31-3.81 79.59-2.93 81.47-2.93ZM104.74 0L100.62 0Q100.62-2.78 100.62-5.33 100.62-7.88 100.62-10.95L100.62-10.95 100.62-13.45Q100.62-16.2 100.62-19.07 100.62-21.95 100.62-24.8L100.62-24.8 104.22-25.05 104.34-20.45 104.79-20.45Q105.59-21.58 106.84-22.73 108.09-23.88 109.79-24.64 111.49-25.4 113.69-25.4L113.69-25.4Q117.64-25.4 119.47-23.13 121.29-20.85 121.29-16.53L121.29-16.53Q121.29-14.9 121.29-13.65 121.29-12.4 121.29-10.95L121.29-10.95Q121.29-8 121.29-5.39 121.29-2.78 121.29 0L121.29 0 117.17 0Q117.17-2.78 117.17-5.36 117.17-7.95 117.17-10.78L117.17-10.78 117.17-15.48Q117.17-18.45 116.1-19.98 115.04-21.5 112.27-21.5L112.27-21.5Q110.59-21.5 109.22-20.83 107.84-20.15 106.73-19.01 105.62-17.88 104.74-16.5L104.74-16.5 104.74-10.78Q104.74-7.85 104.74-5.31 104.74-2.78 104.74 0L104.74 0ZM140.06 0.5L140.06 0.5Q136.04 0.5 133.23-1.2 130.41-2.9 128.94-5.83 127.46-8.75 127.46-12.43L127.46-12.43Q127.46-16.1 128.88-19.04 130.29-21.98 133-23.68 135.71-25.38 139.61-25.38L139.61-25.38Q141.06-25.38 142.48-25.13 143.89-24.88 145.14-24.46 146.39-24.05 147.36-23.5L147.36-23.5 146.99-19.7Q145.59-20.5 144.35-20.94 143.11-21.38 142.05-21.54 140.99-21.7 140.09-21.7L140.09-21.7Q136.29-21.7 133.99-19.21 131.69-16.73 131.69-12.5L131.69-12.5Q131.69-9.85 132.7-7.71 133.71-5.58 135.75-4.34 137.79-3.1 140.81-3.1L140.81-3.1Q141.89-3.1 142.95-3.3 144.01-3.5 145.06-3.89 146.11-4.28 147.09-4.9L147.09-4.9 147.44-1.13Q146.61-0.68 145.51-0.31 144.41 0.05 143.05 0.28 141.69 0.5 140.06 0.5ZM158.19 0L154.04 0Q154.04-2.78 154.04-5.33 154.04-7.88 154.04-10.95L154.04-10.95 154.04-13.45Q154.04-15.68 154.04-17.56 154.04-19.45 154.04-21.21 154.04-22.98 154.04-24.8L154.04-24.8 158.19-24.95Q158.19-23.1 158.19-21.31 158.19-19.53 158.19-17.61 158.19-15.7 158.19-13.45L158.19-13.45 158.19-10.95Q158.19-7.88 158.19-5.33 158.19-2.78 158.19 0L158.19 0ZM156.04-30.53L156.04-30.53Q154.69-30.53 153.84-31.28 152.99-32.02 152.99-33.58L152.99-33.58Q152.99-35.1 153.84-35.86 154.69-36.63 156.09-36.63L156.09-36.63Q157.46-36.63 158.29-35.84 159.11-35.05 159.11-33.58L159.11-33.58Q159.11-32.02 158.29-31.28 157.46-30.53 156.04-30.53ZM172.58 0L168.46 0Q168.46-2.78 168.46-5.33 168.46-7.88 168.46-10.95L168.46-10.95 168.46-13.45Q168.46-14.98 168.46-16.66 168.46-18.35 168.46-20.18 168.46-22 168.46-23.96 168.46-25.93 168.46-28.05L168.46-28.05Q168.46-30.7 169.17-32.48 169.88-34.25 171.15-35.3 172.41-36.35 174.03-36.81 175.66-37.27 177.51-37.27L177.51-37.27Q178.41-37.27 179.26-37.19 180.11-37.1 180.82-36.95 181.53-36.8 182.03-36.6L182.03-36.6 181.66-33.02Q180.86-33.33 179.95-33.49 179.03-33.65 178.03-33.65L178.03-33.65Q175.11-33.65 173.77-32.24 172.43-30.83 172.43-27.95L172.43-27.95Q172.43-27.18 172.43-26.21 172.43-25.25 172.43-24.8L172.43-24.8 172.58-23.88 172.58-10.95Q172.58-7.88 172.58-5.33 172.58-2.78 172.58 0L172.58 0ZM169.63-21.53L163.76-21.53 163.76-24.8 180.98-24.8 180.98-21.53Q178.48-21.53 176.11-21.53 173.73-21.53 171.33-21.53L171.33-21.53 169.63-21.53ZM193.33 9.6L188.98 9.75Q189.98 7.3 190.98 4.8 191.98 2.3 192.98-0.15L192.98-0.15 192.98 0.9Q192.03-1.65 191.08-4.28 190.13-6.9 189.21-9.38L189.21-9.38 187.56-13.88Q186.58-16.55 185.54-19.35 184.51-22.15 183.53-24.8L183.53-24.8 187.96-24.98Q189.03-21.75 190.06-18.68 191.08-15.6 192.16-12.4L192.16-12.4 194.78-4.42 195.23-4.42 198.11-12.43Q199.23-15.55 200.33-18.63 201.43-21.7 202.56-24.8L202.56-24.8 206.93-24.8Q206.13-22.8 205.39-20.94 204.66-19.07 203.77-16.82 202.88-14.58 201.66-11.48L201.66-11.48 198.91-4.5Q197.03 0.25 195.72 3.58 194.41 6.9 193.33 9.6L193.33 9.6Z" opacity="1" transform="matrix(1,0,0,1,0,0)" fill="#6d285f" class="wordmark-text-0" data-fill-palette-color="primary" id="text-0"></path></svg></g></svg></g><g transform="matrix(1,0,0,1,0,119.74992736825256)"><svg viewBox="0 0 232.209792 21.17452708062812" height="21.17452708062812" width="232.209792"><g transform="matrix(1,0,0,1,0,0)"><svg width="232.209792" viewBox="-1.76 -41.16 598.8 54.608515624999995" height="21.17452708062812" data-palette-color="#ef85d1"><path d="M7.14-5.94Q5.32-3.22 3.58-1.53 1.83 0.17 0.2 0.17L0.2 0.17Q-0.63 0.17-1.05-0.22L-1.05-0.22Q-1.76-0.85-1.76-1.42-1.76-1.98-1.39-2.25L-1.39-2.25Q2.29-4.91 6.79-17.87L6.79-17.87 8.23-21.97Q10.72-29 12.45-30.69L12.45-30.69Q13.06-31.15 13.72-31.15 14.38-31.15 14.87-30.94 15.36-30.74 15.72-30.42L15.72-30.42Q16.55-29.69 16.55-28.71L16.55-28.71Q16.55-28.34 16.21-27.66 15.87-26.98 15.43-25.88L15.43-25.88 12.33-17.26Q18.26-18.33 22.12-22.17L22.12-22.17Q25.73-25.76 25.73-29.54L25.73-29.54Q25.73-33.13 22.51-34.25L22.51-34.25Q21.41-34.64 19.96-34.64 18.51-34.64 16.99-34.28 15.48-33.91 14.01-33.33L14.01-33.33Q11.06-32.13 9.18-30.52L9.18-30.52Q8.69-30.05 8.11-30.05 7.52-30.05 7.01-30.3 6.49-30.54 6.1-30.93L6.1-30.93Q5.2-31.79 5.2-32.68 5.2-33.57 5.83-34.28 6.47-34.99 7.52-35.56 8.57-36.13 9.94-36.58 11.3-37.04 12.74-37.35L12.74-37.35Q15.67-37.96 18.57-37.96 21.46-37.96 23.86-37.24 26.27-36.52 27.83-35.3L27.83-35.3Q30.98-32.86 30.98-29.1L30.98-29.1 30.98-28.71Q30.76-24.1 27.49-20.58L27.49-20.58Q24.63-17.53 20.12-15.77L20.12-15.77Q16.04-14.16 12.4-14.16L12.4-14.16 11.77-14.16Q11.45-14.16 11.16-14.21L11.16-14.21Q8.96-8.67 7.14-5.94ZM48.14-6.49L48.14-6.49Q48.14-4.25 49.73-4.25L49.73-4.25Q50.83-4.25 51.55-4.59 52.27-4.93 52.51-4.93L52.51-4.93Q53.02-4.93 53.02-4.39L53.02-4.39Q53.02-2.29 50.83-0.78L50.83-0.78Q48.51 0.81 46.09 0L46.09 0Q44.5-0.56 43.75-2.42L43.75-2.42Q43.38-3.37 43.38-4.15L43.38-4.15Q43.38-5.42 43.63-6.84L43.63-6.84Q41.35-2.2 37.99-0.44L37.99-0.44Q36.64 0.24 35.13 0.24 33.62 0.24 32.5-0.38 31.39-1 30.61-2.1L30.61-2.1Q29.03-4.39 29.17-7.86L29.17-7.86Q29.32-12.21 31.74-16.38L31.74-16.38Q33.96-20.29 37.35-22.75L37.35-22.75Q40.74-25.27 43.7-25.27 46.65-25.27 48.46-22.56L48.46-22.56Q50.14-25.27 51.44-25.27L51.44-25.27Q52.83-25.27 53.54-24.76L53.54-24.76Q54.88-23.78 54.49-23.05L54.49-23.05Q48.36-10.5 48.19-7.42L48.19-7.42Q48.14-6.98 48.14-6.49ZM34.59-6.4L34.59-6.4Q34.59-3.47 36.47-3.47L36.47-3.47Q37.91-3.47 40.01-5.91L40.01-5.91Q43.09-9.5 45.46-15.58L45.46-15.58Q46.21-17.48 46.73-19.38L46.73-19.38Q46.63-21.04 45.33-21.83L45.33-21.83Q44.89-22.09 44.03-22.09 43.16-22.09 42-21.46 40.84-20.83 39.76-19.73 38.67-18.63 37.73-17.13 36.79-15.63 36.08-13.87L36.08-13.87Q34.59-10.11 34.59-6.4ZM56.46-2.37L56.46-2.37Q56.17-3.17 56.17-4.21 56.17-5.25 56.53-6.53 56.88-7.81 57.44-9.2 58-10.6 58.66-12.06L58.66-12.06 59.98-14.99Q62.52-20.63 61.86-21.68L61.86-21.68Q61.57-22.14 60.76-22.61L60.76-22.61Q60.47-22.78 60.47-23.21 60.47-23.63 60.82-24.02 61.18-24.41 61.74-24.71L61.74-24.71Q62.93-25.27 64.13-25.27 65.33-25.27 65.95-25.01 66.57-24.76 66.96-24.37L66.96-24.37Q67.77-23.56 67.77-22.58 67.77-21.61 67.45-20.4 67.13-19.19 66.62-17.77 66.11-16.36 65.5-14.84L65.5-14.84Q63.81-10.89 63.23-9.62L63.23-9.62 62.32-7.74Q61.57-6.05 61.57-5.37 61.57-4.69 61.79-4.41 62.01-4.13 62.58-4.13 63.15-4.13 63.85-4.57 64.55-5 65.35-5.74 66.16-6.47 67.02-7.43 67.89-8.4 68.72-9.45L68.72-9.45Q70.89-12.13 71.94-14.06L71.94-14.06Q77.22-23.78 77.53-24.22L77.53-24.22Q78.34-25.27 79.16-25.27 79.98-25.27 80.59-25.09 81.2-24.9 81.64-24.56L81.64-24.56Q82.61-23.85 82.23-22.97 81.86-22.09 81.32-20.56L81.32-20.56Q76.68-7.1 75.3-3.78 73.92-0.46 72.9 1.55 71.87 3.56 70.49 5.62 69.11 7.67 67.55 9.35L67.55 9.35Q63.98 13.16 60.86 13.43L60.86 13.43Q59.66 13.53 58.95 13.09L58.95 13.09Q57.73 12.35 57.73 11.69L57.73 11.69Q57.73 11.04 58.85 10.78 59.96 10.52 61.14 9.75 62.32 8.98 63.42 7.96L63.42 7.96Q66.65 4.88 68.43 1.27L68.43 1.27Q69.94-1.9 70.87-4.74L70.87-4.74 72.77-10.55Q72.07-9.69 71.21-8.54L71.21-8.54 69.45-6.2Q67.16-3.3 65.64-2.08L65.64-2.08Q62.76 0.24 60.49 0.24L60.49 0.24Q57.47 0.24 56.46-2.37ZM102.41-20.65L102.41-20.65Q100.99-20.65 97.23-16.55L97.23-16.55Q94.43-13.35 93.16-11.74L93.16-11.74 90.96-8.96Q89.54-6.27 88.74-4.49L88.74-4.49 87.42-1.66Q86.91-0.61 86.53-0.18 86.15 0.24 85.5 0.24 84.86 0.24 84.26 0.01 83.66-0.22 83.22-0.59L83.22-0.59Q82.29-1.37 82.29-2.29L82.29-2.29Q82.29-2.66 82.83-3.74L82.83-3.74 83.76-5.71Q84.2-6.59 84.78-7.96L84.78-7.96 86.15-11.3Q89.03-18.51 89.03-20.61L89.03-20.61Q89.03-21.73 88.3-22.27L88.3-22.27 87.81-22.61Q87.57-22.78 87.57-23.21 87.57-23.63 87.9-24.02 88.22-24.41 88.76-24.71L88.76-24.71Q89.86-25.27 90.97-25.27 92.08-25.27 92.72-25.02 93.35-24.78 93.82-24.37L93.82-24.37Q94.74-23.51 94.74-22.58 94.74-21.66 94.5-20.72 94.26-19.78 93.89-18.81 93.52-17.85 93.11-16.94L93.11-16.94Q92.13-14.84 91.9-14.37 91.67-13.89 91.76-14.01L91.76-14.01Q96.23-19.8 97.14-20.85L97.14-20.85Q99.02-23.02 100.07-23.83L100.07-23.83Q101.99-25.27 103.72-25.27 105.44-25.27 106.46-24.19 107.49-23.12 107.49-21.36L107.49-21.36Q107.49-19.82 106.71-17.75 105.93-15.67 105.66-14.84L105.66-14.84 109.25-19.58 111.25-21.97Q113.05-24 114.42-24.63 115.79-25.27 116.66-25.27 117.52-25.27 118.36-24.95 119.21-24.63 119.79-24.05L119.79-24.05Q121.04-22.85 121.04-20.87L121.04-20.87Q121.04-18.97 120.16-16.97 119.28-14.97 118.62-13.68 117.96-12.4 117.35-11.11L117.35-11.11Q115.57-7.23 115.57-5.35L115.57-5.35Q115.57-4.03 116.64-4.03L116.64-4.03Q117.67-4.03 118.51-4.47 119.35-4.91 119.6-4.91L119.6-4.91Q120.11-4.91 120.11-4.39L120.11-4.39Q120.11-2.22 117.89-0.76L117.89-0.76Q116.4 0.24 115.17 0.24 113.93 0.24 113.18-0.05 112.42-0.34 111.81-0.98L111.81-0.98Q110.44-2.39 110.44-4.52 110.44-6.64 110.98-8.42 111.52-10.21 112.25-11.88 112.98-13.55 113.73-14.95 114.47-16.36 114.86-17.19L114.86-17.19Q115.64-18.9 115.64-19.7L115.64-19.7Q115.64-20.65 114.64-20.65L114.64-20.65Q113.32-20.65 109.9-16.28L109.9-16.28Q107.32-12.89 106.32-11.4L106.32-11.4 104.63-8.96Q103.22-6.27 102.46-4.49L102.46-4.49 101.21-1.66Q100.75-0.61 100.41-0.18 100.07 0.24 99.46 0.24 98.85 0.24 98.27 0.05 97.7-0.15 97.28-0.46L97.28-0.46Q96.33-1.17 96.33-1.97 96.33-2.76 96.86-4.14 97.38-5.52 98.16-7.23L98.16-7.23 101.58-14.45Q103.41-18.48 103.41-19.57 103.41-20.65 102.41-20.65ZM104.83-13.77L104.83-13.77Q104.85-13.77 104.85-13.79L104.85-13.79 104.88-13.84Q104.83-13.79 104.83-13.77ZM124.84-8.54L124.84-8.54Q124.94-10.67 125.55-12.61 126.16-14.55 127.19-16.37 128.21-18.19 129.59-19.81 130.97-21.44 132.58-22.66L132.58-22.66Q136.07-25.27 139.64-25.27L139.64-25.27Q143.81-25.27 145.2-21.83L145.2-21.83Q145.69-20.65 145.67-19.06 145.64-17.46 145.06-16.1 144.47-14.75 143.43-13.64 142.4-12.52 140.97-11.65 139.54-10.77 137.86-10.16L137.86-10.16Q134.39-8.94 130.43-8.89L130.43-8.89Q130.34-8.54 130.31-7.86 130.29-7.18 130.46-6.34 130.63-5.49 131.04-4.83L131.04-4.83Q131.92-3.37 133.58-3.37L133.58-3.37Q136.42-3.37 139.1-5.03L139.1-5.03Q140.05-5.59 140.65-6.19 141.25-6.79 141.69-6.79 142.13-6.79 142.46-6.26 142.79-5.74 142.79-5.08L142.79-5.08Q142.79-3.78 142.06-2.83L142.06-2.83Q138.98 0.24 132.9 0.24L132.9 0.24Q129.31 0.24 127.14-1.9L127.14-1.9Q124.7-4.35 124.84-8.54ZM139.1-22.02L139.1-22.02Q136.54-22.02 134.17-18.51L134.17-18.51Q132.17-15.48 130.95-11.33L130.95-11.33Q135.02-11.74 138.03-14.55L138.03-14.55Q140.79-17.19 140.79-19.6 140.79-22.02 139.1-22.02ZM165.93-20.65L165.93-20.65Q165.17-20.65 163.78-19.2 162.39-17.75 161.36-16.55L161.36-16.55 159.29-14.06 155.29-8.96Q153.87-6.27 153.06-4.49L153.06-4.49 151.75-1.66Q151.23-0.61 150.85-0.18 150.48 0.24 149.83 0.24 149.18 0.24 148.58 0.01 147.99-0.22 147.55-0.59L147.55-0.59Q146.62-1.37 146.62-2.29L146.62-2.29Q146.62-2.66 147.16-3.74L147.16-3.74 148.08-5.71Q148.52-6.59 149.11-7.96L149.11-7.96 150.48-11.3Q153.36-18.51 153.36-20.61L153.36-20.61Q153.36-21.73 152.62-22.27L152.62-22.27 152.14-22.61Q151.89-22.78 151.89-23.21 151.89-23.63 152.22-24.02 152.55-24.41 153.09-24.71L153.09-24.71Q154.19-25.27 155.3-25.27 156.41-25.27 157.02-25.02 157.63-24.78 158.04-24.37L158.04-24.37Q158.95-23.51 158.95-22.58 158.95-21.66 158.72-20.72 158.48-19.78 158.13-18.81 157.78-17.85 157.38-16.92 156.99-15.99 156.68-15.31L156.68-15.31 156.19-14.26Q155.99-13.87 156.09-14.01L156.09-14.01Q158.8-17.77 159.66-18.85L159.66-18.85 161.36-20.9Q163.24-23.1 164.32-23.8L164.32-23.8Q166.49-25.27 167.74-25.27 168.98-25.27 169.84-24.95 170.69-24.63 171.33-24.05L171.33-24.05Q172.67-22.8 172.67-20.87 172.67-18.95 171.79-16.85 170.91-14.75 170.26-13.44 169.62-12.13 169.03-10.79L169.03-10.79Q167.2-6.71 167.2-4.86L167.2-4.86Q167.2-4.03 168.52-4.03L168.52-4.03Q169.54-4.03 170.39-4.47 171.23-4.91 171.47-4.91L171.47-4.91Q171.98-4.91 171.98-4.39L171.98-4.39Q171.98-2.22 169.76-0.76L169.76-0.76Q168.27 0.24 167.03 0.24 165.78 0.24 164.97-0.02 164.15-0.29 163.51-0.88L163.51-0.88Q162.07-2.17 162.07-4.49L162.07-4.49Q162.07-7.32 163.85-11.57L163.85-11.57Q165.15-14.48 165.69-15.55L165.69-15.55 166.52-17.29Q167.27-18.85 167.27-19.75 167.27-20.65 165.93-20.65ZM189.34-6.4L189.34-6.4Q190.05-6.4 190.05-5.44L190.05-5.44Q190.05-4.64 189.56-3.88L189.56-3.88Q188.9-2.47 186.92-1.2L186.92-1.2Q184.68 0.24 182.41 0.24L182.41 0.24Q178.48 0.24 177.43-3.27L177.43-3.27Q176.18-7.45 181.16-20.97L181.16-20.97Q178.35-21.22 178.11-21.95L178.11-21.95Q178.04-22.17 178.04-22.42 178.04-22.68 178.27-23.02 178.5-23.36 178.87-23.68L178.87-23.68Q179.72-24.39 180.6-24.39L180.6-24.39 182.53-24.39Q185.17-30.57 186.29-31.42L186.29-31.42Q186.83-31.81 187.49-31.81 188.14-31.81 188.58-31.64 189.02-31.47 189.36-31.15L189.36-31.15Q190.15-30.42 190.15-29.52L190.15-29.52Q190.15-29.03 189.85-28.39L189.85-28.39 188.05-24.46 188.63-24.46Q190.15-24.46 191.07-24.49L191.07-24.49Q191.07-24.49 192.47-24.51L192.47-24.51Q192.93-24.54 193.63-24.54 194.32-24.54 194.32-24.02L194.32-24.02Q194.32-20.8 186.7-20.8L186.7-20.8 186.51-20.8 184.85-16.5Q182.04-8.89 182.04-5.83L182.04-5.83Q182.04-4.98 182.43-4.5 182.82-4.03 183.9-4.03 184.97-4.03 185.85-4.39 186.73-4.76 187.39-5.21 188.05-5.66 188.52-6.03 189-6.4 189.34-6.4ZM228.37-6.49L228.37-6.49Q228.37-4.25 229.96-4.25L229.96-4.25Q231.06-4.25 231.78-4.59 232.5-4.93 232.74-4.93L232.74-4.93Q233.26-4.93 233.26-4.39L233.26-4.39Q233.26-2.29 231.06-0.78L231.06-0.78Q228.74 0.81 226.32 0L226.32 0Q224.74-0.56 223.98-2.42L223.98-2.42Q223.61-3.37 223.61-4.15L223.61-4.15Q223.61-5.42 223.86-6.84L223.86-6.84Q221.59-2.2 218.22-0.44L218.22-0.44Q216.87 0.24 215.36 0.24 213.85 0.24 212.74-0.38 211.63-1 210.84-2.1L210.84-2.1Q209.26-4.39 209.4-7.86L209.4-7.86Q209.55-12.21 211.97-16.38L211.97-16.38Q214.19-20.29 217.58-22.75L217.58-22.75Q220.98-25.27 223.93-25.27 226.88-25.27 228.69-22.56L228.69-22.56Q230.38-25.27 231.67-25.27L231.67-25.27Q233.06-25.27 233.77-24.76L233.77-24.76Q235.11-23.78 234.72-23.05L234.72-23.05Q228.59-10.5 228.42-7.42L228.42-7.42Q228.37-6.98 228.37-6.49ZM214.82-6.4L214.82-6.4Q214.82-3.47 216.7-3.47L216.7-3.47Q218.14-3.47 220.24-5.91L220.24-5.91Q223.32-9.5 225.69-15.58L225.69-15.58Q226.44-17.48 226.96-19.38L226.96-19.38Q226.86-21.04 225.57-21.83L225.57-21.83Q225.13-22.09 224.26-22.09 223.39-22.09 222.23-21.46 221.07-20.83 219.99-19.73 218.9-18.63 217.96-17.13 217.02-15.63 216.31-13.87L216.31-13.87Q214.82-10.11 214.82-6.4ZM261.13-4.93L261.13-4.93Q261.65-4.93 261.65-4.39L261.65-4.39Q261.65-2.29 259.47-0.78L259.47-0.78Q258.03 0.24 256.75 0.24 255.47 0.24 254.71-0.05 253.96-0.34 253.35-0.98L253.35-0.98Q251.98-2.44 251.98-5L251.98-5Q251.98-5.52 252.17-6.64L252.17-6.64Q250.2-3.59 248.78-2.34L248.78-2.34Q245.92 0.24 243.19 0.24L243.19 0.24Q238.87 0.24 237.53-3.66L237.53-3.66Q237.04-5.1 237.04-7.28 237.04-9.45 237.7-11.67 238.36-13.89 239.49-15.89 240.63-17.9 242.13-19.62 243.63-21.34 245.29-22.61L245.29-22.61Q248.85-25.27 251.74-25.27 254.62-25.27 256.35-22.92L256.35-22.92Q260.6-37.48 262.75-40.09L262.75-40.09Q263.65-41.16 264.65-41.16L264.65-41.16Q266.31-41.16 267.17-40.21L267.17-40.21Q267.43-39.89 267.43-39.58 267.43-39.26 267.04-38.4 266.65-37.55 265.9-35.64L265.9-35.64Q263.72-29.91 262.84-27.25L262.84-27.25Q260.6-20.43 259.82-17.87L259.82-17.87 258.47-13.35Q256.74-7.32 256.74-5.69 256.74-4.05 257.94-4.05L257.94-4.05Q259.04-4.05 259.69-4.35L259.69-4.35 260.62-4.79Q260.89-4.93 261.13-4.93ZM244.36-3.42L244.36-3.42Q246.88-3.42 250.12-8.33L250.12-8.33Q253.52-13.4 254.86-19.38L254.86-19.38Q254.76-21.04 253.47-21.83L253.47-21.83Q253.03-22.09 252.14-22.09 251.25-22.09 250.06-21.45 248.88-20.8 247.77-19.7 246.66-18.6 245.69-17.13 244.73-15.65 244.02-13.99L244.02-13.99Q242.48-10.38 242.48-6.9 242.48-3.42 244.36-3.42ZM283.01-20.65L283.01-20.65Q281.59-20.65 277.83-16.55L277.83-16.55Q275.02-13.35 273.75-11.74L273.75-11.74 271.56-8.96Q270.14-6.27 269.34-4.49L269.34-4.49 268.02-1.66Q267.5-0.61 267.13-0.18 266.75 0.24 266.1 0.24 265.45 0.24 264.86 0.01 264.26-0.22 263.82-0.59L263.82-0.59Q262.89-1.37 262.89-2.29L262.89-2.29Q262.89-2.66 263.43-3.74L263.43-3.74 264.35-5.71Q264.79-6.59 265.38-7.96L265.38-7.96 266.75-11.3Q269.63-18.51 269.63-20.61L269.63-20.61Q269.63-21.73 268.9-22.27L268.9-22.27 268.41-22.61Q268.16-22.78 268.16-23.21 268.16-23.63 268.49-24.02 268.82-24.41 269.36-24.71L269.36-24.71Q270.46-25.27 271.57-25.27 272.68-25.27 273.31-25.02 273.95-24.78 274.41-24.37L274.41-24.37Q275.34-23.51 275.34-22.58 275.34-21.66 275.1-20.72 274.85-19.78 274.49-18.81 274.12-17.85 273.71-16.94L273.71-16.94Q272.73-14.84 272.5-14.37 272.27-13.89 272.36-14.01L272.36-14.01Q276.83-19.8 277.73-20.85L277.73-20.85Q279.61-23.02 280.66-23.83L280.66-23.83Q282.59-25.27 284.31-25.27 286.03-25.27 287.06-24.19 288.09-23.12 288.09-21.36L288.09-21.36Q288.09-19.82 287.3-17.75 286.52-15.67 286.25-14.84L286.25-14.84 289.84-19.58 291.85-21.97Q293.65-24 295.02-24.63 296.39-25.27 297.25-25.27 298.12-25.27 298.96-24.95 299.8-24.63 300.39-24.05L300.39-24.05Q301.64-22.85 301.64-20.87L301.64-20.87Q301.64-18.97 300.76-16.97 299.88-14.97 299.22-13.68 298.56-12.4 297.95-11.11L297.95-11.11Q296.17-7.23 296.17-5.35L296.17-5.35Q296.17-4.03 297.24-4.03L297.24-4.03Q298.27-4.03 299.11-4.47 299.95-4.91 300.19-4.91L300.19-4.91Q300.71-4.91 300.71-4.39L300.71-4.39Q300.71-2.22 298.49-0.76L298.49-0.76Q297 0.24 295.76 0.24 294.53 0.24 293.77-0.05 293.02-0.34 292.41-0.98L292.41-0.98Q291.04-2.39 291.04-4.52 291.04-6.64 291.58-8.42 292.11-10.21 292.85-11.88 293.58-13.55 294.32-14.95 295.07-16.36 295.46-17.19L295.46-17.19Q296.24-18.9 296.24-19.7L296.24-19.7Q296.24-20.65 295.24-20.65L295.24-20.65Q293.92-20.65 290.5-16.28L290.5-16.28Q287.91-12.89 286.91-11.4L286.91-11.4 285.23-8.96Q283.81-6.27 283.06-4.49L283.06-4.49 281.81-1.66Q281.35-0.61 281.01-0.18 280.66 0.24 280.05 0.24 279.44 0.24 278.87 0.05 278.3-0.15 277.88-0.46L277.88-0.46Q276.93-1.17 276.93-1.97 276.93-2.76 277.45-4.14 277.98-5.52 278.76-7.23L278.76-7.23 282.18-14.45Q284.01-18.48 284.01-19.57 284.01-20.65 283.01-20.65ZM285.42-13.77L285.42-13.77Q285.45-13.77 285.45-13.79L285.45-13.79 285.47-13.84Q285.42-13.79 285.42-13.77ZM318.53-30.99Q317.99-30.42 317.31-30.07 316.62-29.71 315.87-29.63 315.11-29.54 314.44-29.86 313.77-30.18 313.28-30.76L313.28-30.76Q312.23-31.98 312.23-33.23 312.23-34.47 312.63-35.1 313.03-35.72 313.64-36.11L313.64-36.11Q314.82-36.87 315.85-36.87 316.89-36.87 317.47-36.72 318.04-36.57 318.53-36.23L318.53-36.23Q319.72-35.42 319.72-34.27 319.72-33.11 319.39-32.34 319.06-31.57 318.53-30.99ZM313.52-4.57L313.52-4.57Q314.16-4.57 314.16-3.74L314.16-3.74Q314.16-2.64 313.16-1.46L313.16-1.46Q311.69 0.24 309.23 0.24L309.23 0.24Q306.39 0.24 305.34-2.05L305.34-2.05Q304.95-2.86 304.95-4 304.95-5.15 305.36-6.56 305.76-7.96 306.36-9.51 306.95-11.06 307.66-12.65L307.66-12.65 308.96-15.72Q310.37-19.17 310.37-20.26 310.37-21.36 310.14-21.72 309.91-22.07 309.64-22.27L309.64-22.27 309.15-22.61Q308.91-22.78 308.91-23.21 308.91-23.63 309.24-24.02 309.57-24.41 310.1-24.71L310.1-24.71Q311.2-25.27 312.67-25.27L312.67-25.27Q316.26-25.27 316.26-23.39L316.26-23.39Q316.26-21.19 315.11-18.37 313.96-15.55 313.16-13.82L313.16-13.82 311.69-10.45Q310.08-6.74 310.08-5.1L310.08-5.1Q310.08-4.03 311.15-4.03L311.15-4.03Q312.2-4.03 312.74-4.3 313.28-4.57 313.52-4.57ZM337.25-20.65L337.25-20.65Q336.49-20.65 335.1-19.2 333.71-17.75 332.68-16.55L332.68-16.55 330.61-14.06 326.61-8.96Q325.19-6.27 324.38-4.49L324.38-4.49 323.07-1.66Q322.55-0.61 322.17-0.18 321.8 0.24 321.15 0.24 320.5 0.24 319.9 0.01 319.31-0.22 318.87-0.59L318.87-0.59Q317.94-1.37 317.94-2.29L317.94-2.29Q317.94-2.66 318.48-3.74L318.48-3.74 319.4-5.71Q319.84-6.59 320.43-7.96L320.43-7.96 321.8-11.3Q324.68-18.51 324.68-20.61L324.68-20.61Q324.68-21.73 323.94-22.27L323.94-22.27 323.46-22.61Q323.21-22.78 323.21-23.21 323.21-23.63 323.54-24.02 323.87-24.41 324.41-24.71L324.41-24.71Q325.51-25.27 326.62-25.27 327.73-25.27 328.34-25.02 328.95-24.78 329.36-24.37L329.36-24.37Q330.27-23.51 330.27-22.58 330.27-21.66 330.04-20.72 329.8-19.78 329.45-18.81 329.1-17.85 328.71-16.92 328.31-15.99 328-15.31L328-15.31 327.51-14.26Q327.31-13.87 327.41-14.01L327.41-14.01Q330.12-17.77 330.98-18.85L330.98-18.85 332.68-20.9Q334.56-23.1 335.64-23.8L335.64-23.8Q337.81-25.27 339.06-25.27 340.3-25.27 341.16-24.95 342.01-24.63 342.65-24.05L342.65-24.05Q343.99-22.8 343.99-20.87 343.99-18.95 343.11-16.85 342.23-14.75 341.58-13.44 340.94-12.13 340.35-10.79L340.35-10.79Q338.52-6.71 338.52-4.86L338.52-4.86Q338.52-4.03 339.84-4.03L339.84-4.03Q340.86-4.03 341.71-4.47 342.55-4.91 342.79-4.91L342.79-4.91Q343.3-4.91 343.3-4.39L343.3-4.39Q343.3-2.22 341.08-0.76L341.08-0.76Q339.59 0.24 338.35 0.24 337.1 0.24 336.29-0.02 335.47-0.29 334.83-0.88L334.83-0.88Q333.39-2.17 333.39-4.49L333.39-4.49Q333.39-7.32 335.18-11.57L335.18-11.57Q336.47-14.48 337.01-15.55L337.01-15.55 337.84-17.29Q338.59-18.85 338.59-19.75 338.59-20.65 337.25-20.65ZM387.44-4.93L387.44-4.93Q387.95-4.93 387.95-4.39L387.95-4.39Q387.95-2.29 385.78-0.78L385.78-0.78Q384.34 0.24 383.06 0.24 381.78 0.24 381.02-0.05 380.26-0.34 379.65-0.98L379.65-0.98Q378.29-2.44 378.29-5L378.29-5Q378.29-5.52 378.48-6.64L378.48-6.64Q376.5-3.59 375.09-2.34L375.09-2.34Q372.23 0.24 369.5 0.24L369.5 0.24Q365.17 0.24 363.83-3.66L363.83-3.66Q363.34-5.1 363.34-7.28 363.34-9.45 364-11.67 364.66-13.89 365.8-15.89 366.93-17.9 368.43-19.62 369.94-21.34 371.6-22.61L371.6-22.61Q375.16-25.27 378.04-25.27 380.92-25.27 382.66-22.92L382.66-22.92Q386.9-37.48 389.05-40.09L389.05-40.09Q389.96-41.16 390.96-41.16L390.96-41.16Q392.62-41.16 393.47-40.21L393.47-40.21Q393.74-39.89 393.74-39.58 393.74-39.26 393.35-38.4 392.96-37.55 392.2-35.64L392.2-35.64Q390.03-29.91 389.15-27.25L389.15-27.25Q386.9-20.43 386.12-17.87L386.12-17.87 384.78-13.35Q383.05-7.32 383.05-5.69 383.05-4.05 384.24-4.05L384.24-4.05Q385.34-4.05 386-4.35L386-4.35 386.93-4.79Q387.2-4.93 387.44-4.93ZM370.67-3.42L370.67-3.42Q373.18-3.42 376.43-8.33L376.43-8.33Q379.82-13.4 381.17-19.38L381.17-19.38Q381.07-21.04 379.77-21.83L379.77-21.83Q379.34-22.09 378.44-22.09 377.55-22.09 376.37-21.45 375.18-20.8 374.07-19.7 372.96-18.6 372-17.13 371.03-15.65 370.33-13.99L370.33-13.99Q368.79-10.38 368.79-6.9 368.79-3.42 370.67-3.42ZM409.61-6.49L409.61-6.49Q409.61-4.25 411.19-4.25L411.19-4.25Q412.29-4.25 413.01-4.59 413.73-4.93 413.98-4.93L413.98-4.93Q414.49-4.93 414.49-4.39L414.49-4.39Q414.49-2.29 412.29-0.78L412.29-0.78Q409.97 0.81 407.56 0L407.56 0Q405.97-0.56 405.21-2.42L405.21-2.42Q404.85-3.37 404.85-4.15L404.85-4.15Q404.85-5.42 405.09-6.84L405.09-6.84Q402.82-2.2 399.45-0.44L399.45-0.44Q398.11 0.24 396.59 0.24 395.08 0.24 393.97-0.38 392.86-1 392.08-2.1L392.08-2.1Q390.49-4.39 390.64-7.86L390.64-7.86Q390.78-12.21 393.2-16.38L393.2-16.38Q395.42-20.29 398.82-22.75L398.82-22.75Q402.21-25.27 405.16-25.27 408.12-25.27 409.92-22.56L409.92-22.56Q411.61-25.27 412.9-25.27L412.9-25.27Q414.29-25.27 415-24.76L415-24.76Q416.34-23.78 415.95-23.05L415.95-23.05Q409.83-10.5 409.65-7.42L409.65-7.42Q409.61-6.98 409.61-6.49ZM396.06-6.4L396.06-6.4Q396.06-3.47 397.94-3.47L397.94-3.47Q399.38-3.47 401.48-5.91L401.48-5.91Q404.55-9.5 406.92-15.58L406.92-15.58Q407.68-17.48 408.19-19.38L408.19-19.38Q408.09-21.04 406.8-21.83L406.8-21.83Q406.36-22.09 405.49-22.09 404.63-22.09 403.47-21.46 402.31-20.83 401.22-19.73 400.13-18.63 399.19-17.13 398.25-15.63 397.55-13.87L397.55-13.87Q396.06-10.11 396.06-6.4ZM416.81-4.3L416.81-4.3Q416.81-5.05 417.14-5.7 417.46-6.35 417.95-6.79L417.95-6.79Q418.98-7.74 420.1-7.74L420.1-7.74Q421.08-7.74 421.08-6.74L421.08-6.74Q421.08-4.2 422.76-3.2L422.76-3.2Q423.37-2.83 424.03-2.83 424.69-2.83 425.16-2.98 425.62-3.13 426.01-3.44L426.01-3.44Q426.89-4.15 426.89-5.13 426.89-6.1 426.45-6.92 426.01-7.74 425.35-8.64L425.35-8.64 423.96-10.6Q421.03-14.5 421.03-17.8L421.03-17.8Q421.03-20.53 423.35-22.75L423.35-22.75Q425.99-25.27 430.11-25.27L430.11-25.27Q433.72-25.27 435.75-23.49L435.75-23.49Q437.41-22.05 437.41-20.19L437.41-20.19Q437.41-18.26 435.95-17.11L435.95-17.11Q434.63-16.09 433.31-16.36L433.31-16.36Q432.72-16.48 432.41-16.96 432.09-17.43 432.28-18.04 432.48-18.65 432.48-19.31 432.48-19.97 432.24-20.53 431.99-21.09 431.58-21.48L431.58-21.48Q430.72-22.29 429.78-22.29 428.84-22.29 428.23-22.08 427.62-21.88 427.16-21.48L427.16-21.48Q426.21-20.61 426.21-19.32 426.21-18.04 426.64-17.11 427.08-16.19 427.73-15.26 428.38-14.33 429.13-13.38 429.89-12.43 430.53-11.38L430.53-11.38Q432.06-8.91 432.06-7.04 432.06-5.18 431.28-3.92 430.5-2.66 429.26-1.76L429.26-1.76Q426.6 0.22 423.3 0.22L423.3 0.22Q420.15 0.22 418.32-1.29L418.32-1.29Q416.81-2.56 416.81-4.3ZM456.77-20.65L456.77-20.65Q455.43-20.65 451.96-16.55L451.96-16.55 449.93-14.06 446.03-8.96Q444.61-6.27 443.81-4.49L443.81-4.49 442.49-1.66Q441.97-0.61 441.6-0.18 441.22 0.24 440.57 0.24 439.92 0.24 439.33 0.01 438.73-0.22 438.29-0.59L438.29-0.59Q437.36-1.37 437.36-2.29L437.36-2.29Q437.36-2.66 437.87-3.74L437.87-3.74 438.85-5.71Q443.41-15.11 447.13-29.54L447.13-29.54Q448.49-34.86 449.1-39.11L449.1-39.11Q449.37-41.16 451.1-41.16L451.1-41.16Q452.23-41.16 452.96-40.63L452.96-40.63Q454.38-39.58 454.33-38.38 454.28-37.18 453.99-35.69 453.69-34.2 453.23-32.46 452.77-30.71 452.18-28.78L452.18-28.78Q450.57-23.88 449.79-21.7L449.79-21.7Q447.39-15.14 446.83-14.01L446.83-14.01Q447.2-14.45 447.78-15.21L447.78-15.21Q452.23-21.04 453.28-22.18 454.33-23.32 455.06-23.93L455.06-23.93Q456.6-25.27 458.97-25.27L458.97-25.27Q460.9-25.27 462.07-23.97L462.07-23.97Q463.17-22.73 463.17-21.25 463.17-19.78 462.84-18.59 462.51-17.41 461.99-16.19 461.48-14.97 460.87-13.67L460.87-13.67 459.65-11.11Q457.94-7.23 457.94-5.35L457.94-5.35Q457.94-4.03 459.02-4.03L459.02-4.03Q460.04-4.03 460.88-4.47 461.73-4.91 461.97-4.91L461.97-4.91Q462.48-4.91 462.48-4.39L462.48-4.39Q462.48-2.22 460.28-0.76L460.28-0.76Q458.77 0.24 457.53 0.24 456.28 0.24 455.46-0.01 454.65-0.27 454.01-0.85L454.01-0.85Q452.57-2.17 452.57-4.74L452.57-4.74Q452.57-7.5 454.38-11.67L454.38-11.67 457.01-17.29Q457.77-18.85 457.77-19.75 457.77-20.65 456.77-20.65ZM467.12-6.93L467.12-6.93Q467.12-8.35 467.33-9.64 467.53-10.94 467.86-12.26 468.19-13.57 468.61-14.89L468.61-14.89 471.34-23.24Q474.59-33.4 475.42-39.11L475.42-39.11Q475.69-41.16 477.42-41.16L477.42-41.16Q478.45-41.16 479.15-40.63L479.15-40.63Q480.45-39.58 480.41-38.39 480.37-37.21 480.07-35.75 479.76-34.3 479.29-32.59 478.81-30.88 478.2-29L478.2-29Q476.57-24.17 475.76-22.02L475.76-22.02 474.37-18.38Q476.49-21.68 477.84-22.9L477.84-22.9Q480.52-25.27 483.43-25.27L483.43-25.27Q487.7-25.27 489.12-20.8L489.12-20.8Q489.58-19.26 489.58-16.97 489.58-14.67 488.91-12.41 488.24-10.16 487.09-8.22 485.94-6.27 484.42-4.71 482.89-3.15 481.21-2.05L481.21-2.05Q477.64 0.24 474.3 0.24L474.3 0.24Q470.93 0.24 469-1.81L469-1.81Q467.12-3.86 467.12-6.93ZM473.95-2.93L473.95-2.93Q476.25-2.93 478.62-4.98L478.62-4.98Q482.23-8.11 483.48-13.92L483.48-13.92Q483.89-15.82 483.89-17.88 483.89-19.95 483.43-20.78 482.96-21.61 482-21.61 481.03-21.61 479.98-20.83 478.93-20.04 477.79-18.76 476.64-17.48 475.52-15.81 474.39-14.14 473.49-12.35L473.49-12.35Q471.51-8.42 471.51-5.68 471.51-2.93 473.95-2.93ZM495.44-1.66Q494.41-2.64 493.82-4.14 493.24-5.64 493.21-7.69 493.19-9.74 493.71-11.84 494.24-13.94 495.2-15.89 496.17-17.85 497.52-19.56 498.88-21.26 500.51-22.53L500.51-22.53Q504.08-25.27 507.91-25.27L507.91-25.27Q512.94-25.27 514.72-20.85L514.72-20.85Q515.99-17.65 514.87-13.11L514.87-13.11Q513.84-8.94 511.11-5.44L511.11-5.44Q508.4-1.95 504.71-0.49L504.71-0.49Q502.86 0.24 501.06 0.24 499.27 0.24 497.87-0.22 496.46-0.68 495.44-1.66ZM500.1-13.5Q499.37-11.69 498.94-9.79 498.51-7.89 498.54-6.19 498.56-4.49 499.06-3.53 499.56-2.56 500.68-2.56 501.81-2.56 502.89-3.33 503.98-4.1 505.01-5.37 506.03-6.64 506.93-8.3 507.84-9.96 508.52-11.77L508.52-11.77Q510.01-15.7 509.96-18.75L509.96-18.75Q509.96-21.44 508.86-22.17L508.86-22.17Q508.42-22.46 507.63-22.46 506.84-22.46 505.81-21.74 504.79-21.02 503.76-19.8 502.74-18.58 501.78-16.94 500.83-15.31 500.1-13.5ZM537.6-6.49L537.6-6.49Q537.6-4.25 539.18-4.25L539.18-4.25Q540.28-4.25 541-4.59 541.72-4.93 541.97-4.93L541.97-4.93Q542.48-4.93 542.48-4.39L542.48-4.39Q542.48-2.29 540.28-0.78L540.28-0.78Q537.96 0.81 535.55 0L535.55 0Q533.96-0.56 533.2-2.42L533.2-2.42Q532.84-3.37 532.84-4.15L532.84-4.15Q532.84-5.42 533.08-6.84L533.08-6.84Q530.81-2.2 527.44-0.44L527.44-0.44Q526.1 0.24 524.58 0.24 523.07 0.24 521.96-0.38 520.85-1 520.07-2.1L520.07-2.1Q518.48-4.39 518.63-7.86L518.63-7.86Q518.77-12.21 521.19-16.38L521.19-16.38Q523.41-20.29 526.81-22.75L526.81-22.75Q530.2-25.27 533.15-25.27 536.11-25.27 537.91-22.56L537.91-22.56Q539.6-25.27 540.89-25.27L540.89-25.27Q542.28-25.27 542.99-24.76L542.99-24.76Q544.33-23.78 543.94-23.05L543.94-23.05Q537.82-10.5 537.65-7.42L537.65-7.42Q537.6-6.98 537.6-6.49ZM524.05-6.4L524.05-6.4Q524.05-3.47 525.93-3.47L525.93-3.47Q527.37-3.47 529.47-5.91L529.47-5.91Q532.54-9.5 534.91-15.58L534.91-15.58Q535.67-17.48 536.18-19.38L536.18-19.38Q536.08-21.04 534.79-21.83L534.79-21.83Q534.35-22.09 533.48-22.09 532.62-22.09 531.46-21.46 530.3-20.83 529.21-19.73 528.12-18.63 527.18-17.13 526.24-15.63 525.54-13.87L525.54-13.87Q524.05-10.11 524.05-6.4ZM546.04-0.59Q545.55-0.95 545.26-1.4 544.97-1.86 544.94-2.19 544.92-2.51 545.08-2.99 545.24-3.47 545.5-4.15L545.5-4.15Q550.48-16.41 550.48-20.61L550.48-20.61Q550.41-21.78 549.68-22.27L549.68-22.27 549.19-22.61Q548.97-22.78 548.96-23.21 548.95-23.63 549.26-24.02 549.58-24.41 550.09-24.71L550.09-24.71Q551.14-25.27 552.25-25.27 553.37-25.27 553.99-25.02 554.61-24.78 555.05-24.37L555.05-24.37Q555.98-23.49 555.99-22.51 556-21.53 555.77-20.53 555.54-19.53 555.22-18.57 554.9-17.6 554.59-16.74 554.27-15.87 554.17-15.45L554.17-15.45Q553.98-14.6 554.02-14.38L554.02-14.38Q554.61-14.89 554.73-15.38L554.73-15.38 555.68-17.19Q558.86-22.9 561.89-24.76L561.89-24.76Q562.76-25.27 564-25.27 565.23-25.27 565.99-24.4 566.74-23.54 566.78-22.49 566.82-21.44 566.63-20.74 566.45-20.04 566.09-19.43L566.09-19.43Q565.28-18.07 564.13-18.07L564.13-18.07Q563.81-18.07 563.55-18.29L563.55-18.29 563.01-18.75Q562.2-19.46 561.46-19.46 560.71-19.46 559.65-18.48 558.59-17.5 557.44-15.97L557.44-15.97Q553.59-10.86 551.14-4.54L551.14-4.54 550.07-1.71Q549.65-0.66 549.34-0.21 549.02 0.24 548.4 0.24 547.77 0.24 547.15 0.01 546.53-0.22 546.04-0.59ZM590.74-4.93L590.74-4.93Q591.25-4.93 591.25-4.39L591.25-4.39Q591.25-2.29 589.08-0.78L589.08-0.78Q587.64 0.24 586.36 0.24 585.08 0.24 584.32-0.05 583.56-0.34 582.95-0.98L582.95-0.98Q581.59-2.44 581.59-5L581.59-5Q581.59-5.52 581.78-6.64L581.78-6.64Q579.8-3.59 578.39-2.34L578.39-2.34Q575.53 0.24 572.8 0.24L572.8 0.24Q568.48 0.24 567.13-3.66L567.13-3.66Q566.64-5.1 566.64-7.28 566.64-9.45 567.3-11.67 567.96-13.89 569.1-15.89 570.23-17.9 571.73-19.62 573.24-21.34 574.9-22.61L574.9-22.61Q578.46-25.27 581.34-25.27 584.22-25.27 585.96-22.92L585.96-22.92Q590.2-37.48 592.35-40.09L592.35-40.09Q593.26-41.16 594.26-41.16L594.26-41.16Q595.92-41.16 596.77-40.21L596.77-40.21Q597.04-39.89 597.04-39.58 597.04-39.26 596.65-38.4 596.26-37.55 595.5-35.64L595.5-35.64Q593.33-29.91 592.45-27.25L592.45-27.25Q590.2-20.43 589.42-17.87L589.42-17.87 588.08-13.35Q586.35-7.32 586.35-5.69 586.35-4.05 587.54-4.05L587.54-4.05Q588.64-4.05 589.3-4.35L589.3-4.35 590.23-4.79Q590.5-4.93 590.74-4.93ZM573.97-3.42L573.97-3.42Q576.48-3.42 579.73-8.33L579.73-8.33Q583.12-13.4 584.47-19.38L584.47-19.38Q584.37-21.04 583.07-21.83L583.07-21.83Q582.64-22.09 581.74-22.09 580.85-22.09 579.67-21.45 578.49-20.8 577.37-19.7 576.26-18.6 575.3-17.13 574.33-15.65 573.63-13.99L573.63-13.99Q572.09-10.38 572.09-6.9 572.09-3.42 573.97-3.42Z" opacity="1" transform="matrix(1,0,0,1,0,0)" fill="#ef85d1" class="slogan-text-1" data-fill-palette-color="secondary" id="text-1"></path></svg></g></svg></g></svg></g></svg></g><g><svg viewBox="0 0 245.65351679999998 245.65420170888535" height="245.65420170888535" width="245.65351679999998"><g><svg xmlns="http://www.w3.org/2000/svg" data-name="Layer 1" viewBox="5 4.999749070151777 90 90.00025092984822" x="0" y="0" height="245.65420170888535" width="245.65351679999998" class="icon-icon-0" data-fill-palette-color="accent" id="icon-0"><path d="M84.454 39.099A8.14 8.14 0 0 1 82.821 48.416H65.685C61.87 44.79 61.504 40.083 62.448 37.686 64.706 31.95 73.27 39.744 75.388 41.651 76.4 42.563 77.658 41.68 81.636 38.433 82.914 37.391 83.956 38.271 84.454 39.1M6.8 86.959A1.8 1.8 0 0 1 5 85.16V24.8A2 2 0 0 1 5.036 24.444 2 2 0 0 1 5.096 24.245C5.111 24.199 5.121 24.15 5.14 24.107A2 2 0 0 1 5.243 23.912C5.265 23.874 5.281 23.834 5.305 23.798A2 2 0 0 1 5.527 23.528L23.527 5.527A2 2 0 0 1 23.8 5.304C23.827 5.285 23.859 5.273 23.889 5.255A2 2 0 0 1 24.107 5.14C24.15 5.122 24.193 5.113 24.236 5.099A1.5 1.5 0 0 1 24.8 5H67.14A1.8 1.8 0 0 1 68.94 6.8V29.01A1.8 1.8 0 1 1 65.34 29.01V8.6H26.6V24.8A1.8 1.8 0 0 1 24.8 26.6H8.6V83.36H49.28A1.8 1.8 0 0 1 49.28 86.96ZM23 23V11.145L11.145 23ZM55.574 23.885A1.8 1.8 0 0 0 55.574 20.285H35.365A1.8 1.8 0 0 0 35.365 23.885ZM16.566 34.032A1.8 1.8 0 0 0 18.366 35.832H55.573A1.8 1.8 0 0 0 55.574 32.232H18.365A1.8 1.8 0 0 0 16.565 34.033M18.366 47.78H55.573A1.8 1.8 0 0 0 55.574 44.18H18.365A1.8 1.8 0 0 0 18.365 47.78M54.373 57.927A1.8 1.8 0 0 0 52.574 56.127H18.365A1.8 1.8 0 0 0 18.365 59.727H52.575A1.8 1.8 0 0 0 54.374 57.927M18.365 68.075A1.8 1.8 0 0 0 18.365 71.675H47.575A1.8 1.8 0 0 0 47.574 68.074ZM53.506 75.968C53.506 69.268 58.614 59.573 64.457 54.588A1.7 1.7 0 0 1 64.255 53.805 1.69 1.69 0 0 1 65.943 52.116H82.563A1.69 1.69 0 0 1 84.25 53.804 2 2 0 0 1 84.228 54.024C90.303 58.801 95 68.998 95 75.967 95 86.48 85.71 95 74.253 95S53.506 86.48 53.506 75.968M70.684 68.362C70.684 66.992 72.318 65.832 74.254 65.832A7.6 7.6 0 0 1 79.318 68.159L79.49 68.314 82.18 65.286 82.035 65.154A12.4 12.4 0 0 0 76.279 61.994V59.06H72.228V62.025C69.008 62.794 66.634 65.34 66.634 68.362 66.634 70.493 67.838 73.461 73.575 75.5 74.852 75.952 77.822 77.184 77.822 78.818 77.822 80.188 76.187 81.348 74.253 81.348A7.6 7.6 0 0 1 69.188 79.02L69.015 78.865 66.325 81.895 66.47 82.024A12.4 12.4 0 0 0 72.228 85.188V88.119H76.278V85.155C79.499 84.386 81.874 81.839 81.874 78.818 81.873 76.687 80.668 73.718 74.93 71.68 73.654 71.228 70.684 69.996 70.684 68.362" fill="#ef85d1" data-fill-palette-color="accent"></path></svg></g></svg></g></svg></g><defs></defs></svg><rect width="395.5199999999999" height="146.13927345576587" fill="none" stroke="none" visibility="hidden"></rect></g></svg></g></svg>